<?xml version="1.0" encoding="UTF-8" standalone="no"?>
<!DOCTYPE svg PUBLIC "-//W3C//DTD SVG 1.1//EN" "http://www.w3.org/Graphics/SVG/1.1/DTD/svg11.dtd">
<svg width="100%" height="100%" viewBox="0 0 17 17" version="1.1" xmlns="http://www.w3.org/2000/svg" xmlns:xlink="http://www.w3.org/1999/xlink" xml:space="preserve" xmlns:serif="http://www.serif.com/" style="fill-rule:evenodd;clip-rule:evenodd;stroke-linejoin:round;stroke-miterlimit:2;">
    <g transform="matrix(1,0,0,1,-303.316,-106.716)">
        <g transform="matrix(0.0354167,0,0,0.0354167,302.749,106.15)">
            <g>
                <path d="M434.478,16L77.519,16C43.718,16 16,43.72 16,77.522L16,434.477C16,468.281 43.718,496 77.519,496L434.478,496C468.281,496 496,468.281 496,434.478L496,77.522C496,43.72 468.281,16 434.478,16ZM416,157.701L416,354.271C416,388.394 388.384,416 354.253,416L157.703,416C123.555,416 96,388.394 96,354.271L96,157.701C96,123.568 123.555,96 157.703,96L354.253,96C388.384,96 416,123.568 416,157.701Z" style="fill:rgb(222,0,244);"/>
                <path d="M255.989,312.355C287.057,312.355 312.388,287.053 312.388,255.979C312.388,246.012 309.685,236.639 305.096,228.481C304.044,226.649 302.942,224.825 301.698,223.124C291.432,208.921 274.801,199.618 255.989,199.618C237.166,199.618 220.527,208.921 210.268,223.124C209.035,224.825 207.925,226.649 206.88,228.481C202.28,236.632 199.589,245.999 199.589,255.979C199.59,287.054 224.891,312.355 255.989,312.355Z" style="fill:rgb(222,0,244);"/>
                <path d="M352.66,187.09C367.221,187.041 379,175.223 379,160.662C379,160.481 379,160.301 379,160.12C379,152.855 376.107,145.888 370.961,140.76C365.815,135.632 358.838,132.763 351.573,132.789C351.565,132.789 351.557,132.789 351.549,132.789C336.753,132.84 324.799,144.875 324.847,159.671C324.848,160.003 324.849,160.335 324.851,160.667C324.873,167.699 327.689,174.434 332.678,179.39C337.667,184.346 344.42,187.117 351.452,187.094C351.854,187.092 352.257,187.091 352.66,187.09Z" style="fill:rgb(222,0,244);"/>
                <path d="M340.218,232.076C342.38,239.676 343.584,247.685 343.584,255.949C343.584,304.254 304.288,343.558 255.989,343.558C207.689,343.558 168.385,304.277 168.385,255.972C168.385,247.708 169.582,239.672 171.738,232.08C172.616,229.004 173.628,226 174.825,223L127,223L127,354.271C127,371.207 140.774,385 157.703,385L354.253,385C371.186,385 385,371.207 385,354.271L385,223L337.116,223C338.324,226 339.337,229.007 340.218,232.076Z" style="fill:rgb(222,0,244);"/>
            </g>
        </g>
    </g>
</svg>
