<?xml version="1.0" encoding="UTF-8" standalone="no"?>
<!DOCTYPE svg PUBLIC "-//W3C//DTD SVG 1.1//EN" "http://www.w3.org/Graphics/SVG/1.1/DTD/svg11.dtd">
<svg width="100%" height="100%" viewBox="0 0 17 17" version="1.1" xmlns="http://www.w3.org/2000/svg" xmlns:xlink="http://www.w3.org/1999/xlink" xml:space="preserve" xmlns:serif="http://www.serif.com/" style="fill-rule:evenodd;clip-rule:evenodd;stroke-linejoin:round;stroke-miterlimit:2;">
    <g transform="matrix(1,0,0,1,-355.879,-111.403)">
        <g transform="matrix(0.0543562,0,0,0.0543562,342.637,103.596)">
            <path d="M516.29,143.624L283.708,143.624C261.684,143.624 243.624,161.686 243.624,183.71L243.624,416.289C243.624,438.315 261.684,456.376 283.708,456.376L516.29,456.376C538.315,456.376 556.376,438.315 556.376,416.29L556.376,183.71C556.376,161.686 538.315,143.624 516.29,143.624ZM478.315,223.763C458.205,203.63 431.462,192.538 402.97,192.526C344.261,192.526 296.48,240.305 296.456,299.03C296.449,317.803 301.353,336.128 310.674,352.281L295.563,407.474L352.028,392.662C367.586,401.149 385.102,405.622 402.927,405.627L402.971,405.627C461.674,405.627 509.46,357.843 509.483,299.116C509.494,270.655 498.426,243.895 478.315,223.763ZM402.97,387.639C451.766,387.639 491.479,347.924 491.5,299.109C491.508,275.454 482.308,253.211 465.594,236.477C448.88,219.743 426.652,210.523 403.006,210.515C354.174,210.515 314.459,250.226 314.44,299.037C314.433,315.764 319.112,332.056 327.974,346.151L330.08,349.501L321.137,382.169L354.644,373.379L357.875,375.299C371.469,383.363 387.048,387.632 402.933,387.639L402.97,387.639ZM451.53,321.335C448.87,320.002 435.784,313.565 433.344,312.676C430.907,311.788 429.13,311.346 427.358,314.009C425.583,316.672 420.483,322.668 418.93,324.443C417.377,326.219 415.826,326.442 413.164,325.109C410.502,323.778 401.927,320.966 391.761,311.899C383.85,304.842 378.509,296.127 376.956,293.464C375.405,290.798 376.943,289.497 378.123,288.032C381.004,284.455 383.889,280.704 384.776,278.929C385.664,277.153 385.22,275.598 384.553,274.266C383.889,272.935 378.567,259.835 376.35,254.505C374.188,249.317 371.995,250.018 370.361,249.936C368.81,249.859 367.035,249.843 365.26,249.843C363.486,249.843 360.602,250.508 358.162,253.174C355.723,255.839 348.849,262.276 348.849,275.376C348.849,288.476 358.385,301.131 359.716,302.907C361.046,304.684 378.483,331.565 405.179,343.092C411.529,345.837 416.486,347.473 420.352,348.699C426.728,350.725 432.528,350.439 437.115,349.754C442.229,348.989 452.859,343.315 455.079,337.099C457.296,330.882 457.296,325.554 456.63,324.443C455.966,323.333 454.191,322.668 451.53,321.335Z" style="fill:rgb(73,202,0);"/>
        </g>
    </g>
</svg>
