<?xml version="1.0" encoding="UTF-8" standalone="no"?>
<!DOCTYPE svg PUBLIC "-//W3C//DTD SVG 1.1//EN" "http://www.w3.org/Graphics/SVG/1.1/DTD/svg11.dtd">
<svg width="600px" height="600px" version="1.1" xmlns="http://www.w3.org/2000/svg" xmlns:xlink="http://www.w3.org/1999/xlink" xml:space="preserve" xmlns:serif="http://www.serif.com/" style="fill-rule:evenodd;clip-rule:evenodd;stroke-linejoin:round;stroke-miterlimit:2;">
    <g transform="matrix(1,0,0,1,-3647,0)">
        <rect id="Mesa-de-trabajo6" serif:id="Mesa de trabajo6" x="3647" y="0" width="600" height="600" style="fill:none;"/>
        <clipPath id="_clip1">
            <rect id="Mesa-de-trabajo61" serif:id="Mesa de trabajo6" x="3647" y="0" width="600" height="600"/>
        </clipPath>
        <g clip-path="url(#_clip1)">
            <g transform="matrix(0.994362,0,0,0.994362,20.659,3.38257)">
                <g transform="matrix(1.44847,0,0,1.31679,3512.43,456.191)">
                    <path d="M99.751,-34.435C118.234,-34.435 135.146,-23.001 143.494,-4.862C143.495,-4.86 143.496,-4.858 143.497,-4.857C154.188,18.376 175.847,33.022 199.519,33.03C223.191,33.037 244.857,18.403 255.56,-4.823C255.609,-4.93 255.658,-5.037 255.708,-5.144C264.072,-23.296 281.002,-34.734 299.502,-34.734C318.003,-34.734 334.932,-23.296 343.297,-5.144C343.454,-4.803 343.611,-4.462 343.768,-4.121C354.456,19.071 376.058,33.718 399.695,33.802C423.333,33.885 445.02,19.39 455.842,-3.726C456.416,-4.952 456.99,-6.178 457.564,-7.404C466.231,-25.915 483.573,-37.549 502.502,-37.549C506.318,-37.549 509.417,-40.957 509.417,-45.155C509.417,-49.352 506.318,-52.76 502.502,-52.76C478.395,-52.76 456.308,-37.944 445.271,-14.369C444.696,-13.143 444.122,-11.916 443.548,-10.69C435.104,7.346 418.183,18.656 399.74,18.591C381.296,18.526 364.442,7.097 356.103,-10.999C355.945,-11.34 355.788,-11.681 355.631,-12.022C344.911,-35.285 323.213,-49.946 299.502,-49.946C275.792,-49.946 254.094,-35.285 243.374,-12.022C243.324,-11.915 243.275,-11.808 243.226,-11.701C234.879,6.412 217.983,17.824 199.523,17.818C181.062,17.813 164.172,6.391 155.834,-11.727C155.833,-11.729 155.832,-11.731 155.832,-11.732C145.129,-34.988 123.447,-49.646 99.751,-49.646C95.935,-49.646 92.837,-46.238 92.837,-42.041C92.837,-37.843 95.935,-34.435 99.751,-34.435Z" style="fill:rgb(0,225,255);"/>
                </g>
                <g transform="matrix(1.53331,0,0,1.57017,3044.25,-191.946)">
                    <path d="M562.33,279.765C562.604,279.816 563.283,279.936 563.704,279.969C565.324,280.095 567.047,280.149 568.727,280.483C572.626,281.257 576.431,283.12 578.993,288.884C580.905,293.185 581.281,300.941 581.043,309.834C580.737,321.217 579.606,334.744 582.019,343.608C582.791,346.443 581.06,349.356 578.157,350.11C575.254,350.864 572.27,349.174 571.498,346.339C568.87,336.684 569.828,321.956 570.16,309.556C570.347,302.593 570.504,296.484 569.007,293.116C568.149,291.187 566.776,290.873 565.461,290.748C564.108,290.62 562.764,290.593 561.52,290.432C558.277,290.013 555.541,288.835 553.543,286.051C550.95,282.439 549.031,276.012 547.132,269.366C545.61,264.037 544.112,258.527 541.587,255.111C539.441,252.207 536.157,250.549 532.863,248.856C528.326,246.523 523.697,244.233 520.144,240.752C516.342,237.026 514.219,230.212 511.785,223.213C509.297,216.058 506.356,208.315 496,208.315C494.027,208.315 493.022,209.494 492.224,210.859C491.181,212.645 490.437,214.742 489.625,216.735C487.469,222.027 484.581,226.475 479.707,228.047C476.788,228.989 473.152,228.826 469.096,227.773C464.72,226.638 459.645,224.46 454.552,222.902C448.618,221.087 442.472,219.712 438.633,225.79C433.08,234.582 438.605,240.389 443.612,246.117C448.666,251.9 453.544,257.716 454.4,264.334C455.244,270.851 453.053,277.166 450.597,283.524C447.955,290.36 444.7,297.317 449.646,305.231C450.622,306.792 452.256,307.597 454.113,308.182C456.899,309.059 460.167,309.372 463.529,309.622C472.15,310.264 481.213,310.738 487.052,314.599C492.977,318.517 496.358,325.652 499.72,332.636C502.02,337.415 504.106,342.276 508.899,344.019C509.554,344.257 510.072,344.408 510.527,344.315C511.297,344.157 511.731,343.49 512.25,342.929C513.224,341.877 514.139,340.733 515.13,339.742C516.898,337.974 518.903,336.632 521.319,336.038C523.713,335.449 526.619,335.509 530.297,337.181C532.77,338.305 535.584,340.664 538.119,343.995C541.351,348.242 544.266,354.12 545.686,360.214C546.353,363.075 544.516,365.925 541.587,366.576C538.658,367.227 535.738,365.433 535.072,362.573C534.001,357.978 531.819,353.539 529.382,350.337C528.137,348.701 526.918,347.371 525.703,346.819C524.963,346.482 524.441,346.213 523.968,346.349C523.428,346.504 523.094,346.98 522.697,347.397C521.763,348.377 520.89,349.48 519.941,350.466C517.873,352.612 515.477,354.252 512.41,354.785C510.373,355.139 507.982,355.029 505.101,353.981C497.672,351.28 493.432,344.564 489.867,337.157C487.365,331.958 485.359,326.318 480.948,323.401C478.511,321.789 475.2,321.278 471.683,320.902C467.177,320.421 462.349,320.316 457.933,319.767C450.278,318.814 443.832,316.334 440.354,310.769C434.334,301.137 435.81,292.473 438.795,284.071C440.996,277.874 444.414,271.955 443.6,265.666C443.257,263.017 441.682,260.684 439.864,258.352C437.442,255.244 434.506,252.227 432.003,249.06C428.265,244.328 425.501,239.243 425.335,233.453C425.221,229.464 426.29,225.083 429.367,220.21C436.348,209.156 447.016,209.456 457.807,212.758C461.998,214.04 466.175,215.753 469.951,216.938C472.428,217.715 474.593,218.501 476.293,217.953C477.466,217.575 477.895,216.358 478.472,215.177C479.745,212.57 480.715,209.513 482.071,206.868C484.779,201.584 488.727,197.685 496,197.685C509.903,197.685 516.242,205.532 520.228,214.898C521.859,218.732 523.055,222.824 524.369,226.485C525.347,229.21 526.265,231.69 527.856,233.248C530.642,235.979 534.375,237.62 537.934,239.45C542.738,241.919 547.283,244.654 550.413,248.889C553.555,253.14 555.723,259.879 557.618,266.509C559.104,271.711 560.331,276.843 562.33,279.765Z" style="fill:rgb(143,225,0);"/>
                </g>
                <g transform="matrix(1.66507,0.116743,-0.116743,1.66507,2987.46,-293.096)">
                    <path d="M543.457,213.429C540.551,209.419 534.311,201.529 536.824,192.316C538.327,186.802 542.843,185.216 547.528,183.879C554.672,181.842 562.382,180.406 567.433,175.635C569.734,173.462 571.439,170.568 572.756,167.255C574.339,163.271 575.365,158.618 576.746,154.353C578.303,149.545 580.099,145 586,145C587.673,145 589.01,145.845 590.225,146.999C592.08,148.762 593.624,151.206 595.108,153.809C598.883,160.431 602.303,167.909 606.707,171.763C610.697,175.253 615.215,176.328 619.922,177.026C624.386,177.688 629.173,177.739 632.956,182.941C638.414,190.445 634.846,199.019 633.298,203.3C632.36,205.895 633.705,208.764 636.3,209.702C638.895,210.64 641.764,209.295 642.702,206.7C644.959,200.46 649.001,188 641.044,177.059C636.053,170.197 630.206,168.497 624.28,167.561C620.448,166.956 616.519,167.06 613.293,164.237C611.233,162.435 609.583,159.526 607.888,156.42C605.809,152.611 603.769,148.494 601.445,145.025C597.432,139.035 592.438,135 586,135C574.86,135 570.171,142.196 567.232,151.272C566.116,154.719 565.252,158.43 564.105,161.806C563.233,164.376 562.268,166.758 560.567,168.365C556.617,172.096 550.372,172.669 544.785,174.263C536.738,176.558 529.759,180.216 527.176,189.684C523.688,202.474 531.326,213.73 535.36,219.297C536.98,221.531 540.108,222.031 542.343,220.412C544.577,218.792 545.077,215.663 543.457,213.429Z" style="fill:rgb(143,225,0);"/>
                </g>
                <g transform="matrix(1.66916,0,0,1.66916,2954.75,-225.394)">
                    <path d="M592.455,181.036C592.386,180.254 591.729,179.656 590.944,179.662C590.159,179.668 589.511,180.276 589.454,181.059C588.401,196.079 586.806,233.749 585,250C584.014,258.877 587.346,260 590.77,260C593.77,260 597.872,259.59 597,250C595.367,232.037 593.666,195.297 592.455,181.036Z" style="fill:rgb(143,225,0);"/>
                </g>
                <g transform="matrix(1.66916,0,0,1.66916,2954.75,-225.394)">
                    <path d="M592.953,180.993C592.862,179.951 591.985,179.154 590.94,179.162C589.894,179.17 589.031,179.98 588.955,181.023C587.902,196.04 586.308,233.698 584.503,249.945C583.987,254.586 584.654,257.192 585.844,258.646C587.082,260.159 588.907,260.5 590.77,260.5C592.39,260.5 594.297,260.354 595.692,258.949C597.045,257.585 597.955,254.979 597.498,249.955C595.865,231.993 594.164,195.254 592.953,180.994L592.953,180.993ZM591.957,181.08C591.911,180.558 591.472,180.158 590.948,180.162C590.424,180.166 589.991,180.572 589.953,181.094C588.899,196.119 587.303,233.799 585.497,250.055C585.026,254.291 585.532,256.685 586.618,258.012C587.656,259.28 589.209,259.5 590.77,259.5C592.15,259.5 593.794,259.441 594.982,258.244C596.212,257.005 596.917,254.612 596.502,250.045C594.869,232.082 593.168,195.34 591.957,181.08Z" style="fill:none;"/>
                </g>
                <g transform="matrix(1.66698,0.08522,-0.08522,1.66698,2987.26,-281.293)">
                    <path d="M611.886,345.447C610.582,332.651 607.611,319.54 606.318,308.818C605.576,302.671 605.269,297.429 606.667,293.795C608.734,288.419 612.71,288.35 616.011,287.843C620.775,287.11 624.83,285.768 627.314,281.527C631.552,274.293 634.668,257.115 638.539,242.972C639.934,237.877 641.43,233.215 643.211,229.76C644.046,228.141 644.847,226.811 645.867,226.096C649.813,223.334 653.028,225.272 655.838,226.771C659.787,228.879 663.494,230.487 666.822,229.932C669.046,229.561 671.18,228.475 673.2,226.773C675.334,224.974 677.404,222.39 679.53,219.685C681.234,217.518 682.986,215.257 684.986,213.52C686.992,211.778 689.296,210.629 692.318,211.709C693.982,212.303 695.133,212.938 695.773,213.832C696.353,214.643 696.342,215.612 696.252,216.61C696.08,218.522 695.443,220.539 694.839,222.543C693.901,225.657 693.028,228.75 692.944,231.519C692.864,234.158 693.422,236.579 694.8,238.713C697.516,242.918 702.426,244.661 707.987,246.091C712.771,247.32 718.324,248.458 720.133,256.145C720.742,258.735 719.574,260.648 718.023,262.347C716.426,264.095 714.421,265.634 712.501,267.158C707.945,270.776 704.055,274.578 703.112,278.946C702.122,283.537 703.728,287.782 706.094,292.071C708.08,295.671 711.114,299.304 709.301,304.291C708.505,306.48 706.64,307.043 704.582,307.293C700.794,307.754 696.36,307.165 692.309,307.157C684.225,307.141 677.578,309.275 675.192,317.626C674.058,321.596 674.8,324.67 675.843,327.733C676.571,329.869 677.607,332.011 675.629,335.572C675.373,336.033 674.796,336.249 674.184,336.555C673.292,337.001 672.255,337.384 671.12,337.752C667.657,338.874 663.425,339.807 659.211,341.108C649.024,344.251 639.307,349.586 636.903,361.605C636.362,364.311 638.12,366.947 640.826,367.488C643.532,368.03 646.168,366.272 646.709,363.566C647.599,359.117 650.257,356.289 653.552,354.286C657.595,351.827 662.514,350.492 667.02,349.287C671.31,348.14 675.289,347.099 678.225,345.709C681.125,344.336 683.194,342.546 684.371,340.428C687.832,334.198 687.101,330.041 685.89,326.234C685.299,324.376 684.132,322.738 684.808,320.374C685.416,318.244 687.052,317.614 688.925,317.348C692.562,316.83 696.918,317.409 700.975,317.448C708.994,317.525 715.837,315.578 718.699,307.709C721.282,300.604 719.075,294.905 716.196,289.657C715.355,288.125 714.467,286.643 713.767,285.156C713.135,283.813 712.575,282.502 712.888,281.054C713.149,279.843 714.163,278.908 715.25,277.893C717.091,276.174 719.356,274.535 721.473,272.773C727.337,267.891 731.805,262.092 729.867,253.855C727.312,242.997 720.729,239.416 713.89,237.341C711.282,236.549 708.636,236.04 706.331,235.234C705.07,234.792 703.888,234.353 703.2,233.287C702.587,232.339 702.936,231.158 703.193,229.902C703.72,227.327 704.742,224.568 705.424,221.875C706.612,217.18 706.72,212.652 704.478,208.889C702.952,206.327 700.312,203.945 695.682,202.291C686.383,198.97 679.724,203.794 674.201,210.36C672.162,212.785 670.289,215.411 668.385,217.516C667.304,218.711 666.394,219.865 665.178,220.068C664.597,220.165 664.056,219.749 663.414,219.447C661.752,218.663 659.996,217.597 658.114,216.719C652.925,214.297 647.052,213.06 640.133,217.904C638.033,219.374 636.04,221.847 634.323,225.178C632.277,229.147 630.496,234.479 628.894,240.332C625.273,253.559 622.648,269.707 618.686,276.473C618.206,277.291 617.343,277.412 616.484,277.604C615.057,277.923 613.501,278.086 611.931,278.368C606.376,279.365 600.717,281.408 597.333,290.205C595.488,295.002 595.411,301.902 596.39,310.016C597.677,320.684 600.64,333.728 601.937,346.46C602.217,349.206 604.673,351.208 607.418,350.928C610.164,350.648 612.166,348.192 611.886,345.447Z" style="fill:rgb(143,225,0);"/>
                </g>
                <g transform="matrix(-1.66304,0.142842,0.142842,1.66304,4878.58,-318.804)">
                    <path d="M499.012,271.532C496.436,268.412 499.208,265.335 502.68,268.506C516.512,281.138 542.939,309.864 563.815,348.736C567.226,355.089 556.097,363 554,358C535.502,313.889 510.483,285.428 499.012,271.532Z" style="fill:rgb(143,225,0);"/>
                </g>
                <g transform="matrix(-1.66304,0.142842,0.142842,1.66304,4878.58,-318.804)">
                    <path d="M498.626,271.851C497.116,270.021 497.29,268.192 498.234,267.297C499.167,266.413 501.004,266.299 503.017,268.137C516.873,280.79 543.345,309.563 564.255,348.5C565.363,350.562 565.073,352.776 564.037,354.719C563.034,356.601 561.327,358.221 559.582,359.168C557.061,360.536 554.491,360.463 553.539,358.193C535.067,314.145 510.081,285.727 498.626,271.851ZM499.397,271.214C510.885,285.13 535.936,313.633 554.461,357.807C555.187,359.538 557.182,359.333 559.105,358.289C560.69,357.429 562.243,355.958 563.154,354.249C564.033,352.6 564.314,350.722 563.374,348.973C542.533,310.166 516.152,281.486 502.343,268.875C501.566,268.167 500.837,267.794 500.204,267.697C499.672,267.615 499.224,267.737 498.922,268.023C498.255,268.655 498.331,269.922 499.397,271.214Z" style="fill:none;"/>
                </g>
                <g transform="matrix(1.55766,0,0,1.58888,3025.46,-209.014)">
                    <path d="M495.505,265.107C494.809,264.282 494.883,263.055 495.674,262.319C496.465,261.584 497.694,261.599 498.467,262.353C520.166,283.163 549.325,314.907 565,348C568.087,354.517 556.378,361.08 554.337,356.056C539.486,319.501 514.185,287.498 495.505,265.107Z" style="fill:rgb(143,225,0);"/>
                </g>
                <g transform="matrix(1.55766,0,0,1.58888,3025.46,-209.014)">
                    <path d="M495.09,265.44C513.742,287.798 539.011,319.749 553.839,356.251C554.764,358.527 557.41,358.833 560.066,357.753C561.92,356.999 563.76,355.585 564.895,353.847C566.069,352.048 566.496,349.911 565.486,347.779C549.783,314.628 520.579,282.824 498.842,261.977C497.865,261.025 496.308,261.006 495.306,261.938C494.312,262.863 494.217,264.404 495.092,265.442L495.09,265.44ZM495.918,264.773C495.401,264.159 495.455,263.247 496.043,262.7C496.623,262.162 497.523,262.172 498.09,262.725C519.754,283.502 548.866,315.187 564.514,348.221C565.356,350 564.972,351.78 563.993,353.28C562.974,354.841 561.319,356.106 559.656,356.782C557.621,357.61 555.543,357.605 554.835,355.862C539.962,319.252 514.627,287.199 495.92,264.775L495.918,264.773Z" style="fill:none;"/>
                </g>
                <g transform="matrix(1.58572,0,0,-1.58572,2089.08,862.142)">
                    <path d="M1260.05,262.327C1268.65,262.327 1275.63,269.305 1275.63,277.9C1275.63,286.495 1268.65,293.474 1260.05,293.474C1251.46,293.474 1244.48,286.495 1244.48,277.9C1244.48,269.305 1251.46,262.327 1260.05,262.327ZM1260.05,271.8C1263.42,271.8 1266.15,274.534 1266.15,277.9C1266.15,281.267 1263.42,284 1260.05,284C1256.69,284 1253.95,281.267 1253.95,277.9C1253.95,274.534 1256.69,271.8 1260.05,271.8Z" style="fill:rgb(0,225,255);"/>
                </g>
                <g transform="matrix(1.58572,0,0,-1.58572,1802.04,862.142)">
                    <path d="M1260.05,262.327C1268.65,262.327 1275.63,269.305 1275.63,277.9C1275.63,286.495 1268.65,293.474 1260.05,293.474C1251.46,293.474 1244.48,286.495 1244.48,277.9C1244.48,269.305 1251.46,262.327 1260.05,262.327ZM1260.05,271.8C1263.42,271.8 1266.15,274.534 1266.15,277.9C1266.15,281.267 1263.42,284 1260.05,284C1256.69,284 1253.95,281.267 1253.95,277.9C1253.95,274.534 1256.69,271.8 1260.05,271.8Z" style="fill:rgb(0,225,255);"/>
                </g>
                <g transform="matrix(1.58572,0,0,-1.58572,1948.92,915.555)">
                    <path d="M1260.05,262.327C1268.65,262.327 1275.63,269.305 1275.63,277.9C1275.63,286.495 1268.65,293.474 1260.05,293.474C1251.46,293.474 1244.48,286.495 1244.48,277.9C1244.48,269.305 1251.46,262.327 1260.05,262.327ZM1260.05,271.8C1263.42,271.8 1266.15,274.534 1266.15,277.9C1266.15,281.267 1263.42,284 1260.05,284C1256.69,284 1253.95,281.267 1253.95,277.9C1253.95,274.534 1256.69,271.8 1260.05,271.8Z" style="fill:rgb(0,225,255);"/>
                </g>
                <g transform="matrix(80.1197,0,0,80.1197,3642.71,599.039)">
                    <path d="M0.083,-0.681C0.083,-0.692 0.091,-0.7 0.102,-0.7L0.226,-0.7C0.237,-0.7 0.245,-0.692 0.245,-0.681L0.245,-0.151C0.245,-0.14 0.253,-0.132 0.264,-0.132L0.577,-0.132C0.588,-0.132 0.596,-0.124 0.596,-0.113L0.596,-0.019C0.596,-0.008 0.588,-0 0.577,-0L0.102,0C0.091,-0 0.083,-0.008 0.083,-0.019L0.083,-0.681Z" style="fill:rgb(0,73,83);fill-rule:nonzero;"/>
                </g>
                <g transform="matrix(80.1197,0,0,80.1197,3731.24,599.039)">
                    <path d="M0.549,-0.138C0.546,-0.145 0.539,-0.15 0.531,-0.15C0.48,-0.15 0.283,-0.15 0.232,-0.15C0.224,-0.15 0.217,-0.145 0.214,-0.138C0.203,-0.11 0.173,-0.04 0.162,-0.012C0.159,-0.005 0.152,-0 0.144,0C0.118,0 0.057,0 0.02,0C0.014,0 0.008,-0.003 0.004,-0.009C0.001,-0.014 0,-0.021 0.003,-0.026C0.055,-0.143 0.263,-0.611 0.298,-0.689C0.301,-0.696 0.308,-0.7 0.315,-0.7L0.451,-0.7C0.458,-0.7 0.465,-0.696 0.468,-0.689C0.503,-0.611 0.712,-0.143 0.764,-0.027C0.767,-0.021 0.766,-0.014 0.763,-0.009C0.759,-0.003 0.753,-0 0.747,0L0.619,0C0.611,-0 0.604,-0.005 0.601,-0.012C0.59,-0.04 0.56,-0.11 0.549,-0.138ZM0.465,-0.273C0.471,-0.273 0.477,-0.276 0.48,-0.281C0.484,-0.287 0.485,-0.293 0.482,-0.299C0.463,-0.345 0.423,-0.443 0.399,-0.499C0.396,-0.506 0.39,-0.511 0.382,-0.511C0.374,-0.511 0.368,-0.506 0.365,-0.499C0.341,-0.443 0.301,-0.345 0.282,-0.299C0.279,-0.293 0.28,-0.287 0.284,-0.281C0.287,-0.276 0.293,-0.273 0.299,-0.273L0.465,-0.273Z" style="fill:rgb(0,73,83);fill-rule:nonzero;"/>
                </g>
                <g transform="matrix(80.1197,0,0,80.1197,3822,599.039)">
                    <path d="M0.418,0.012C0.347,0.012 0.282,-0.004 0.225,-0.035C0.167,-0.066 0.122,-0.109 0.089,-0.164C0.056,-0.219 0.039,-0.281 0.039,-0.35C0.039,-0.419 0.056,-0.482 0.089,-0.537C0.122,-0.592 0.167,-0.634 0.225,-0.666C0.282,-0.697 0.347,-0.712 0.419,-0.712C0.48,-0.712 0.535,-0.701 0.584,-0.68C0.627,-0.661 0.664,-0.635 0.695,-0.602C0.702,-0.594 0.701,-0.583 0.693,-0.576C0.674,-0.557 0.637,-0.523 0.617,-0.505C0.609,-0.498 0.598,-0.498 0.59,-0.505C0.546,-0.551 0.491,-0.574 0.427,-0.574C0.384,-0.574 0.345,-0.565 0.311,-0.546C0.277,-0.527 0.251,-0.5 0.232,-0.466C0.213,-0.432 0.203,-0.393 0.203,-0.35C0.203,-0.307 0.213,-0.268 0.232,-0.234C0.251,-0.2 0.277,-0.173 0.311,-0.155C0.345,-0.136 0.384,-0.126 0.427,-0.126C0.491,-0.126 0.546,-0.149 0.591,-0.195C0.598,-0.203 0.609,-0.203 0.617,-0.196C0.637,-0.178 0.674,-0.144 0.694,-0.125C0.701,-0.118 0.702,-0.107 0.695,-0.099C0.664,-0.065 0.626,-0.039 0.583,-0.02C0.534,0.001 0.479,0.012 0.418,0.012Z" style="fill:rgb(0,73,83);fill-rule:nonzero;"/>
                </g>
                <g transform="matrix(80.1197,0,0,80.1197,3918.39,599.039)">
                    <path d="M0.228,-0.549C0.228,-0.56 0.22,-0.568 0.209,-0.568L0.023,-0.568C0.018,-0.568 0.013,-0.57 0.01,-0.574C0.006,-0.577 0.004,-0.582 0.004,-0.587L0.004,-0.681C0.004,-0.692 0.012,-0.7 0.023,-0.7L0.595,-0.7C0.606,-0.7 0.614,-0.692 0.614,-0.681L0.614,-0.587C0.614,-0.582 0.612,-0.577 0.608,-0.574C0.605,-0.57 0.6,-0.568 0.595,-0.568L0.409,-0.568C0.398,-0.568 0.39,-0.56 0.39,-0.549L0.39,-0.019C0.39,-0.008 0.382,-0 0.371,-0L0.247,0C0.236,-0 0.228,-0.008 0.228,-0.019L0.228,-0.549Z" style="fill:rgb(0,73,83);fill-rule:nonzero;"/>
                </g>
                <g transform="matrix(80.1197,0,0,80.1197,4001.47,599.039)">
                    <path d="M0.394,0.012C0.294,0.012 0.216,-0.016 0.161,-0.071C0.105,-0.126 0.077,-0.205 0.077,-0.308L0.077,-0.681C0.077,-0.692 0.085,-0.7 0.096,-0.7L0.22,-0.7C0.231,-0.7 0.239,-0.692 0.239,-0.681L0.239,-0.314C0.239,-0.189 0.291,-0.126 0.395,-0.126C0.446,-0.126 0.484,-0.141 0.511,-0.172C0.538,-0.202 0.551,-0.249 0.551,-0.314L0.551,-0.681C0.551,-0.692 0.559,-0.7 0.57,-0.7L0.692,-0.7C0.703,-0.7 0.711,-0.692 0.711,-0.681L0.711,-0.308C0.711,-0.205 0.683,-0.126 0.627,-0.071C0.572,-0.016 0.494,0.012 0.394,0.012Z" style="fill:rgb(0,73,83);fill-rule:nonzero;"/>
                </g>
                <g transform="matrix(80.1197,0,0,80.1197,4095.37,599.039)">
                    <path d="M0.418,0.012C0.347,0.012 0.282,-0.004 0.225,-0.035C0.167,-0.066 0.122,-0.109 0.089,-0.164C0.056,-0.219 0.039,-0.281 0.039,-0.35C0.039,-0.419 0.056,-0.482 0.089,-0.537C0.122,-0.592 0.167,-0.634 0.225,-0.666C0.282,-0.697 0.347,-0.712 0.419,-0.712C0.48,-0.712 0.535,-0.701 0.584,-0.68C0.627,-0.661 0.664,-0.635 0.695,-0.602C0.702,-0.594 0.701,-0.583 0.693,-0.576C0.674,-0.557 0.637,-0.523 0.617,-0.505C0.609,-0.498 0.598,-0.498 0.59,-0.505C0.546,-0.551 0.491,-0.574 0.427,-0.574C0.384,-0.574 0.345,-0.565 0.311,-0.546C0.277,-0.527 0.251,-0.5 0.232,-0.466C0.213,-0.432 0.203,-0.393 0.203,-0.35C0.203,-0.307 0.213,-0.268 0.232,-0.234C0.251,-0.2 0.277,-0.173 0.311,-0.155C0.345,-0.136 0.384,-0.126 0.427,-0.126C0.491,-0.126 0.546,-0.149 0.591,-0.195C0.598,-0.203 0.609,-0.203 0.617,-0.196C0.637,-0.178 0.674,-0.144 0.694,-0.125C0.701,-0.118 0.702,-0.107 0.695,-0.099C0.664,-0.065 0.626,-0.039 0.583,-0.02C0.534,0.001 0.479,0.012 0.418,0.012Z" style="fill:rgb(0,73,83);fill-rule:nonzero;"/>
                </g>
                <g transform="matrix(80.1197,0,0,80.1197,4186.2,599.039)">
                    <path d="M0.549,-0.138C0.546,-0.145 0.539,-0.15 0.531,-0.15C0.48,-0.15 0.283,-0.15 0.232,-0.15C0.224,-0.15 0.217,-0.145 0.214,-0.138C0.203,-0.11 0.173,-0.04 0.162,-0.012C0.159,-0.005 0.152,-0 0.144,0C0.118,0 0.057,0 0.02,0C0.014,0 0.008,-0.003 0.004,-0.009C0.001,-0.014 0,-0.021 0.003,-0.026C0.055,-0.143 0.263,-0.611 0.298,-0.689C0.301,-0.696 0.308,-0.7 0.315,-0.7L0.451,-0.7C0.458,-0.7 0.465,-0.696 0.468,-0.689C0.503,-0.611 0.712,-0.143 0.764,-0.027C0.767,-0.021 0.766,-0.014 0.763,-0.009C0.759,-0.003 0.753,-0 0.747,0L0.619,0C0.611,-0 0.604,-0.005 0.601,-0.012C0.59,-0.04 0.56,-0.11 0.549,-0.138ZM0.465,-0.273C0.471,-0.273 0.477,-0.276 0.48,-0.281C0.484,-0.287 0.485,-0.293 0.482,-0.299C0.463,-0.345 0.423,-0.443 0.399,-0.499C0.396,-0.506 0.39,-0.511 0.382,-0.511C0.374,-0.511 0.368,-0.506 0.365,-0.499C0.341,-0.443 0.301,-0.345 0.282,-0.299C0.279,-0.293 0.28,-0.287 0.284,-0.281C0.287,-0.276 0.293,-0.273 0.299,-0.273L0.465,-0.273Z" style="fill:rgb(0,73,83);fill-rule:nonzero;"/>
                </g>
            </g>
        </g>
    </g>
</svg>
